<mxfile host="app.diagrams.net" modified="2024-08-03T14:18:53.424Z" agent="Mozilla/5.0 (Windows NT 10.0; Win64; x64) AppleWebKit/537.36 (KHTML, like Gecko) Chrome/127.0.0.0 Safari/537.36" version="23.1.5" etag="LdCDvX2hKLuCDKZzsVNs" type="github">
  <diagram name="Halaman-1" id="efQZWcr44LDU_hTnOpvS">
    <mxGraphModel>
      <root>
        <mxCell id="0" />
        <mxCell id="1" parent="0" />
      </root>
    </mxGraphModel>
  </diagram>
</mxfile>
